<svg width="30" height="30" viewBox="0 0 30 30" fill="none" xmlns="http://www.w3.org/2000/svg">
<g id="all-icon">
<path id="Vector" d="M14.7334 14.7334H9.36659C6.40281 14.7334 4 12.3306 4 9.36659C4 6.40281 6.40281 4 9.36659 4C12.3306 4 14.7332 6.40281 14.7332 9.36659V14.7334H14.7334ZM9.36659 27C6.40281 27 4 24.5972 4 21.6334C4 18.6694 6.40281 16.2668 9.36659 16.2668H14.7332V21.6334C14.7334 24.5972 12.3306 27 9.36659 27ZM21.6334 14.7334H16.2666V9.36659C16.2666 6.40281 18.6694 4 21.6334 4C24.5972 4 27 6.40281 27 9.36659C27 12.3306 24.5972 14.7334 21.6334 14.7334ZM21.6334 16.2666H19.3334V17.8H21.6334C23.7471 17.8 25.4668 19.5197 25.4668 21.6334C25.4668 23.7471 23.7471 25.4668 21.6334 25.4668C19.5197 25.4668 17.8 23.7471 17.8 21.6334V16.2666H16.2666V21.6332C16.2666 24.5972 18.6694 26.9998 21.6332 26.9998C24.5972 27 27 24.5972 27 21.6334C27 18.6694 24.5972 16.2666 21.6334 16.2666Z" fill="url(#paint0_linear_185_684)"/>
</g>
<defs>
<linearGradient id="paint0_linear_185_684" x1="14.5" y1="4" x2="14.5" y2="24.5" gradientUnits="userSpaceOnUse">
<stop stop-color="#80B4F8"/>
<stop offset="1" stop-color="#22B4FF"/>
</linearGradient>
</defs>
</svg>
