<svg width="30" height="30" viewBox="0 0 30 30" fill="none" xmlns="http://www.w3.org/2000/svg">
<g id="business-icon">
<path id="Vector" d="M13.66 15.9817L16.4937 18.755L19.2259 16.0397C19.3065 15.9569 19.4037 15.8914 19.5114 15.8472C19.6192 15.8031 19.7351 15.7812 19.8519 15.783H25.993V15.1539C26.0446 13.7406 25.8113 12.3312 25.3064 11.0061C24.8015 9.68106 24.0349 8.46631 23.0503 7.43122C22.0657 6.39612 20.8824 5.56096 19.5681 4.97341C18.2537 4.38587 16.8339 4.05744 15.3898 4.00689C12.4734 3.9048 9.63493 4.94073 7.49893 6.88681C5.36292 8.83289 4.10432 11.5297 4 14.384H9.22756L12.332 11.3458C12.4998 11.1835 12.7262 11.0925 12.9621 11.0925C13.1981 11.0925 13.4245 11.1835 13.5923 11.3458L17.052 14.7317C17.2214 14.8952 17.3174 15.118 17.319 15.3508C17.3206 15.5837 17.2276 15.8077 17.0604 15.9734C16.8933 16.1392 16.6657 16.2332 16.4278 16.2348C16.1898 16.2363 15.961 16.1453 15.7916 15.9817L12.9579 13.2167L10.2257 15.8658C10.1424 15.9473 10.0434 16.0119 9.93458 16.0559C9.82573 16.0999 9.70908 16.1226 9.59129 16.1225H4C4.21659 18.6929 5.36924 21.1018 7.24806 22.9104C9.12688 24.7191 11.6069 25.8072 14.2366 25.9767C16.8663 26.1462 19.4707 25.3858 21.5757 23.834C23.6807 22.2821 25.1462 20.042 25.7054 17.5215H20.2071L17.1027 20.5514C16.9349 20.7137 16.7085 20.8047 16.4725 20.8047C16.2366 20.8047 16.0102 20.7137 15.8424 20.5514L12.3996 17.1655C12.3151 17.0867 12.2481 16.9915 12.203 16.8861C12.1579 16.7807 12.1355 16.6672 12.1374 16.5529C12.145 16.3363 12.2392 16.1312 12.3996 15.9817C12.5675 15.8194 12.7939 15.7284 13.0298 15.7284C13.2657 15.7284 13.4922 15.8194 13.66 15.9817Z" fill="url(#paint0_linear_185_693)"/>
</g>
<defs>
<linearGradient id="paint0_linear_185_693" x1="14.0435" y1="4" x2="14.0435" y2="23.6087" gradientUnits="userSpaceOnUse">
<stop stop-color="#80B4F8"/>
<stop offset="1" stop-color="#22B4FF"/>
</linearGradient>
</defs>
</svg>
