<svg width="24" height="24" viewBox="0 0 24 24" fill="none" xmlns="http://www.w3.org/2000/svg">
<g id="management-icon">
<g id="Group 1158">
<path id="Vector" d="M20.5827 5.07795H18.6658V2.9527C18.6658 1.8761 17.6968 1 16.5047 1H4.55228H4.3744H3.16111C1.97169 1 1 1.8761 1 2.9527V9.67095V16.7211C1 17.7977 1.96904 18.6738 3.16111 18.6738H5.0753V17.3158H3.16111C2.72569 17.3158 2.35932 17.0437 2.35932 16.7211V10.0028V2.9527C2.35932 2.63013 2.72834 2.35799 3.16111 2.35799H4.3744H4.55228H16.5047C16.9401 2.35799 17.3065 2.63013 17.3065 2.9527V5.07795H8.63023H8.45235H7.23908C6.04969 5.07795 5.07795 5.95408 5.07795 7.03065V13.7489V20.7991C5.07795 21.8756 6.04701 22.7518 7.23908 22.7518H20.5827C21.7721 22.7518 22.7438 21.8756 22.7438 20.7991V14.0808V7.03065C22.7437 5.95408 21.7747 5.07795 20.5827 5.07795ZM21.3845 13.7489V20.7991C21.3845 21.1216 21.0154 21.3938 20.5827 21.3938H7.23906C6.80365 21.3938 6.43727 21.1216 6.43727 20.7991V14.0808V7.03065C6.43727 6.70808 6.80632 6.43594 7.23906 6.43594H8.45233H8.6302H20.5826C21.0181 6.43594 21.3845 6.70808 21.3845 7.03065V13.7489H21.3845Z" fill="#22B4FF"/>
<path id="Vector_2" d="M8.47362 10.4833H16.6268C17.0012 10.4833 17.3065 10.1807 17.3065 9.8037C17.3065 9.42934 17.0039 9.12402 16.6268 9.12402H8.47362C8.09926 9.12402 7.79395 9.42934 7.79395 9.8037C7.79397 10.1807 8.09929 10.4833 8.47362 10.4833Z" fill="#22B4FF"/>
<path id="Vector_3" d="M19.3455 13.2021H8.47362C8.09926 13.2021 7.79395 13.5075 7.79395 13.8818C7.79395 14.2588 8.09926 14.5615 8.47362 14.5615H19.3455C19.7199 14.5615 20.0252 14.2588 20.0252 13.8818C20.0252 13.5075 19.7225 13.2021 19.3455 13.2021Z" fill="#22B4FF"/>
<path id="Vector_4" d="M19.3455 17.2798H8.47362C8.09926 17.2798 7.79395 17.5851 7.79395 17.9595C7.79395 18.3365 8.09926 18.6391 8.47362 18.6391H19.3455C19.7199 18.6391 20.0252 18.3365 20.0252 17.9595C20.0252 17.5851 19.7225 17.2798 19.3455 17.2798Z" fill="#22B4FF"/>
</g>
</g>
</svg>
