<svg width="30" height="30" viewBox="0 0 30 30" fill="none" xmlns="http://www.w3.org/2000/svg">
<g id="display-icon">
<path id="Vector" d="M11 8.7V11.25H9.2V7.85C9.2 7.62457 9.29482 7.40837 9.4636 7.24896C9.63239 7.08955 9.8613 7 10.1 7H28.1C28.3387 7 28.5676 7.08955 28.7364 7.24896C28.9052 7.40837 29 7.62457 29 7.85V18.9C29 19.1254 28.9052 19.3416 28.7364 19.501C28.5676 19.6604 28.3387 19.75 28.1 19.75H15.5V18.05H27.2V8.7H11ZM2.9 12.1H13.7C13.9387 12.1 14.1676 12.1896 14.3364 12.349C14.5052 12.5084 14.6 12.7246 14.6 12.95V20.6C14.6 20.8254 14.5052 21.0416 14.3364 21.201C14.1676 21.3604 13.9387 21.45 13.7 21.45H2.9C2.66131 21.45 2.43239 21.3604 2.2636 21.201C2.09482 21.0416 2 20.8254 2 20.6V12.95C2 12.7246 2.09482 12.5084 2.2636 12.349C2.43239 12.1896 2.66131 12.1 2.9 12.1ZM6.5 22.3H10.1C10.3387 22.3 10.5676 22.3896 10.7364 22.549C10.9052 22.7084 11 22.9246 11 23.15C11 23.3754 10.9052 23.5916 10.7364 23.751C10.5676 23.9104 10.3387 24 10.1 24H6.5C6.26131 24 6.03239 23.9104 5.8636 23.751C5.69482 23.5916 5.6 23.3754 5.6 23.15C5.6 22.9246 5.69482 22.7084 5.8636 22.549C6.03239 22.3896 6.26131 22.3 6.5 22.3ZM17.3 20.6H20.9C21.1387 20.6 21.3676 20.6896 21.5364 20.849C21.7052 21.0084 21.8 21.2246 21.8 21.45C21.8 21.6754 21.7052 21.8916 21.5364 22.051C21.3676 22.2104 21.1387 22.3 20.9 22.3H17.3C17.0613 22.3 16.8324 22.2104 16.6636 22.051C16.4948 21.8916 16.4 21.6754 16.4 21.45C16.4 21.2246 16.4948 21.0084 16.6636 20.849C16.8324 20.6896 17.0613 20.6 17.3 20.6Z" fill="url(#paint0_linear_185_689)"/>
</g>
<defs>
<linearGradient id="paint0_linear_185_689" x1="14.3261" y1="7" x2="14.3261" y2="22.1522" gradientUnits="userSpaceOnUse">
<stop stop-color="#80B4F8"/>
<stop offset="1" stop-color="#22B4FF"/>
</linearGradient>
</defs>
</svg>
