<svg width="30" height="30" viewBox="0 0 30 30" fill="none" xmlns="http://www.w3.org/2000/svg">
<g id="E-commerce-icon">
<path id="Vector" d="M24.5743 27H5.43C4.95857 27 4.57286 26.6125 4.57286 26.1389C4.57286 25.6653 4.95857 25.2778 5.43 25.2778H24.5743C25.0457 25.2778 25.4314 25.6653 25.4314 26.1389C25.4314 26.6125 25.0457 27 24.5743 27ZM25.2857 4H4.71429C3.76714 4 3 4.77069 3 5.7222V22.2166C3 23.1681 3.76714 23.9388 4.71429 23.9388H25.2857C26.2329 23.9388 27 23.1681 27 22.2166V5.7222C27 4.77069 26.2329 4 25.2857 4ZM10.8643 18.178C10.8643 18.6516 10.4786 19.0391 10.0071 19.0391C9.53571 19.0391 9.15 18.6516 9.15 18.178V14.9274C9.15 14.4538 9.53571 14.0663 10.0071 14.0663C10.4786 14.0663 10.8643 14.4538 10.8643 14.9274V18.178ZM14.1943 18.178C14.1943 18.6516 13.8086 19.0391 13.3371 19.0391C12.8657 19.0391 12.48 18.6516 12.48 18.178V9.76076C12.48 9.28716 12.8657 8.89966 13.3371 8.89966C13.8086 8.89966 14.1943 9.28716 14.1943 9.76076V18.178ZM17.5243 18.178C17.5243 18.6516 17.1386 19.0391 16.6671 19.0391C16.1957 19.0391 15.81 18.6516 15.81 18.178V17.0801C15.81 16.6065 16.1957 16.219 16.6671 16.219C17.1386 16.219 17.5243 16.6065 17.5243 17.0801V18.178ZM20.85 18.178C20.85 18.6516 20.4643 19.0391 19.9929 19.0391C19.5214 19.0391 19.1357 18.6516 19.1357 18.178V12.3441C19.1357 11.8705 19.5214 11.483 19.9929 11.483C20.4643 11.483 20.85 11.8705 20.85 12.3441V18.178Z" fill="url(#paint0_linear_185_705)"/>
</g>
<defs>
<linearGradient id="paint0_linear_185_705" x1="13.9565" y1="4" x2="13.9565" y2="24.5" gradientUnits="userSpaceOnUse">
<stop stop-color="#80B4F8"/>
<stop offset="1" stop-color="#22B4FF"/>
</linearGradient>
</defs>
</svg>
