<svg width="30" height="30" viewBox="0 0 30 30" fill="none" xmlns="http://www.w3.org/2000/svg">
<g id="inventory-icon">
<path id="Vector" d="M4.16554 5H8.90496C9.09565 5 9.27767 5.07566 9.41288 5.2087L10.4305 6.21918C10.5657 6.3531 10.7477 6.42789 10.9384 6.42789H25.8345C26.2332 6.42789 26.5565 6.75312 26.5565 7.15314V10.7142H3.44353V5.72438C3.44353 5.32436 3.76683 5 4.16554 5ZM2.72239 12.1429H27.2776C27.3794 12.1429 27.4801 12.1644 27.573 12.2061C27.6659 12.2479 27.749 12.3088 27.8167 12.385C27.8845 12.4612 27.9354 12.551 27.9662 12.6483C27.997 12.7457 28.0069 12.8484 27.9953 12.9499L26.7056 24.3574C26.6855 24.5342 26.6013 24.6975 26.4689 24.8161C26.3365 24.9346 26.1653 25.0001 25.9879 25H4.01212C3.83456 25 3.66321 24.9344 3.53081 24.8157C3.39842 24.697 3.31427 24.5335 3.29445 24.3565L2.00471 12.9508C1.9931 12.8493 2.00301 12.7465 2.03378 12.6492C2.06456 12.5518 2.1155 12.4621 2.18327 12.3859C2.25104 12.3097 2.33411 12.2487 2.42702 12.207C2.51993 12.1653 2.62059 12.1437 2.72239 12.1438V12.1429ZM7.04317 15.0004C6.85432 15.0004 6.67321 15.0757 6.53968 15.2097C6.40615 15.3436 6.33113 15.5253 6.33113 15.7148C6.33113 15.9043 6.40615 16.086 6.53968 16.22C6.67321 16.3539 6.85432 16.4292 7.04317 16.4292H7.05877C7.24762 16.4292 7.42873 16.3539 7.56226 16.22C7.69579 16.086 7.77081 15.9043 7.77081 15.7148C7.77081 15.5253 7.69579 15.3436 7.56226 15.2097C7.42873 15.0757 7.24762 15.0004 7.05877 15.0004H7.04317ZM7.04317 17.858C6.85432 17.858 6.67321 17.9332 6.53968 18.0672C6.40615 18.2012 6.33113 18.3829 6.33113 18.5723C6.33113 18.7618 6.40615 18.9435 6.53968 19.0775C6.67321 19.2114 6.85432 19.2867 7.04317 19.2867H7.05877C7.24762 19.2867 7.42873 19.2114 7.56226 19.0775C7.69579 18.9435 7.77081 18.7618 7.77081 18.5723C7.77081 18.3829 7.69579 18.2012 7.56226 18.0672C7.42873 17.9332 7.24762 17.858 7.05877 17.858H7.04317ZM9.9338 15.0004C9.74496 15.0004 9.56385 15.0757 9.43032 15.2097C9.29678 15.3436 9.22176 15.5253 9.22176 15.7148C9.22176 15.9043 9.29678 16.086 9.43032 16.22C9.56385 16.3539 9.74496 16.4292 9.9338 16.4292H14.9081C15.097 16.4292 15.2781 16.3539 15.4116 16.22C15.5451 16.086 15.6202 15.9043 15.6202 15.7148C15.6202 15.5253 15.5451 15.3436 15.4116 15.2097C15.2781 15.0757 15.097 15.0004 14.9081 15.0004H9.93294H9.9338ZM9.9338 17.858C9.74496 17.858 9.56385 17.9332 9.43032 18.0672C9.29678 18.2012 9.22176 18.3829 9.22176 18.5723C9.22176 18.7618 9.29678 18.9435 9.43032 19.0775C9.56385 19.2114 9.74496 19.2867 9.9338 19.2867H14.9081C15.097 19.2867 15.2781 19.2114 15.4116 19.0775C15.5451 18.9435 15.6202 18.7618 15.6202 18.5723C15.6202 18.3829 15.5451 18.2012 15.4116 18.0672C15.2781 17.9332 15.097 17.858 14.9081 17.858H9.93294H9.9338Z" fill="url(#paint0_linear_185_697)"/>
</g>
<defs>
<linearGradient id="paint0_linear_185_697" x1="13.8696" y1="5" x2="13.8696" y2="22.8261" gradientUnits="userSpaceOnUse">
<stop stop-color="#80B4F8"/>
<stop offset="1" stop-color="#22B4FF"/>
</linearGradient>
</defs>
</svg>
