<svg width="19" height="19" viewBox="0 0 19 19" fill="none" xmlns="http://www.w3.org/2000/svg">
<path d="M0.702774 18.2668L11.9439 18.2668C12.1302 18.2668 12.3089 18.1928 12.4407 18.0611C12.5725 17.9293 12.6465 17.7506 12.6465 17.5643L12.6465 14.754C12.6465 14.5677 12.5725 14.389 12.4407 14.2572C12.3089 14.1254 12.1302 14.0514 11.9439 14.0514C11.7576 14.0514 11.5789 14.1254 11.4471 14.2572C11.3154 14.389 11.2413 14.5677 11.2413 14.754L11.2413 16.8617L1.40535 16.8617L1.40535 1.40514L11.2413 1.40514L11.2413 3.51286C11.2413 3.69919 11.3154 3.87789 11.4471 4.00965C11.5789 4.14141 11.7576 4.21543 11.9439 4.21543C12.1302 4.21543 12.3089 4.14141 12.4407 4.00965C12.5725 3.87789 12.6465 3.69919 12.6465 3.51286L12.6465 0.702573C12.6465 0.516239 12.5725 0.337537 12.4407 0.20578C12.3089 0.0740222 12.1302 1.55199e-06 11.9439 1.5357e-06L0.702776 5.52972e-07C0.516442 5.36683e-07 0.33774 0.0740212 0.205982 0.205779C0.0742244 0.337536 0.000204995 0.516238 0.000204979 0.702572L0.000203504 17.5643C0.000203488 17.7506 0.0742229 17.9293 0.205981 18.0611C0.337738 18.1928 0.516441 18.2668 0.702774 18.2668Z" fill="#4D4D4D"/>
<path d="M7.02582 9.83581L16.1592 9.83581C16.3456 9.83581 16.5243 9.76179 16.656 9.63003C16.7878 9.49827 16.8618 9.31957 16.8618 9.13324C16.8618 8.9469 16.7878 8.7682 16.656 8.63644C16.5243 8.50469 16.3456 8.43067 16.1592 8.43067L7.02582 8.43066C6.83949 8.43066 6.66079 8.50469 6.52903 8.63644C6.39727 8.7682 6.32325 8.9469 6.32325 9.13324C6.32325 9.31957 6.39727 9.49827 6.52903 9.63003C6.66079 9.76179 6.83949 9.83581 7.02582 9.83581Z" fill="#4D4D4D"/>
<path d="M14.7541 12.6461C14.8462 12.6472 14.9376 12.629 15.0223 12.5927C15.107 12.5564 15.1831 12.5028 15.2459 12.4353L18.0561 9.62504C18.1233 9.56196 18.1769 9.48578 18.2135 9.40119C18.2502 9.3166 18.269 9.22541 18.269 9.13324C18.269 9.04106 18.2502 8.94987 18.2135 8.86528C18.1769 8.7807 18.1233 8.70451 18.0561 8.64144L15.2459 5.83115C15.1813 5.76657 15.1046 5.71534 15.0202 5.68039C14.9358 5.64543 14.8454 5.62744 14.7541 5.62744C14.6627 5.62744 14.5723 5.64543 14.4879 5.68039C14.4035 5.71534 14.3268 5.76657 14.2623 5.83115C14.1977 5.89574 14.1464 5.97241 14.1115 6.05679C14.0765 6.14118 14.0585 6.23162 14.0585 6.32295C14.0585 6.41429 14.0765 6.50473 14.1115 6.58911C14.1464 6.6735 14.1977 6.75017 14.2623 6.81475L16.5667 9.13324L14.2623 11.4517C14.195 11.5148 14.1415 11.591 14.1049 11.6756C14.0682 11.7602 14.0493 11.8513 14.0493 11.9435C14.0493 12.0357 14.0682 12.1269 14.1049 12.2115C14.1415 12.2961 14.195 12.3722 14.2623 12.4353C14.325 12.5028 14.4012 12.5564 14.4859 12.5927C14.5706 12.629 14.6619 12.6472 14.7541 12.6461Z" fill="#4D4D4D"/>
</svg>
