<svg width="30" height="30" viewBox="0 0 30 30" fill="none" xmlns="http://www.w3.org/2000/svg">
<g id="oa-icon">
<path id="Vector" d="M25.1238 10.6919C25.5099 10.7364 25.8814 10.8373 26.2675 10.9975C26.6536 11.1576 26.9816 11.3919 27.2516 11.6826C27.536 11.9733 27.7363 12.353 27.8786 12.8068C28.0208 13.2606 28.0353 13.7856 27.9366 14.4114V14.4411C27.8931 14.6161 27.8234 15.0106 27.6928 15.6364C27.5796 16.2771 27.4344 17.0216 27.2777 17.8551C27.1209 18.6856 26.9352 19.5487 26.7349 20.4386C26.5346 21.3284 26.3488 22.0877 26.163 22.7165C26.0643 23.0814 25.9192 23.461 25.7334 23.8555C25.5476 24.25 25.3038 24.6 25.0048 24.9055C24.7058 25.2258 24.3487 25.4898 23.9191 25.6945C23.504 25.8992 23.0047 26 22.4184 26H5.82881C5.41371 26 4.97248 25.911 4.52835 25.7242C4.08422 25.5343 3.65751 25.2852 3.28595 24.9352C2.91439 24.5852 2.60088 24.1907 2.35705 23.7102C2.11321 23.2297 2 22.6898 2 22.1055V8.96864C2 7.72881 2.32802 6.75 2.98405 6.05C3.64009 5.35 4.57189 5 5.77075 5H20.5083C20.9525 5 21.4082 5.08898 21.8639 5.26398C22.3342 5.43898 22.7638 5.67331 23.1354 5.97881C23.5214 6.28432 23.8204 6.63432 24.0643 7.04364C24.3081 7.45297 24.4213 7.88898 24.4213 8.35763C24.4213 8.54746 24.2791 8.6928 24.0933 8.6928H22.8683C22.0671 8.6928 21.1411 8.6928 20.07 8.67797C18.9989 8.66314 17.8552 8.66314 16.6563 8.66314C15.4574 8.66314 14.3137 8.66314 13.2716 8.6483C12.2295 8.63347 11.3151 8.63347 10.5575 8.63347H9.17285C8.65905 8.63347 8.24395 8.80847 7.95947 9.14364C7.675 9.47881 7.44568 9.93263 7.28892 10.4725C7.13217 11.0716 6.94639 11.6975 6.7461 12.3559C6.5458 13.0144 6.36002 13.6403 6.20327 14.2097C6.00298 14.8801 5.80268 15.5237 5.60239 16.1496C5.60239 16.1644 5.60239 16.1644 5.58788 16.1792C5.54433 16.3394 5.52982 16.4699 5.52982 16.5589C5.52982 16.9089 5.64303 17.1996 5.87235 17.4339C6.10167 17.6682 6.38615 17.7839 6.72868 17.7839C7.34408 17.7839 7.77079 17.3894 7.9856 16.5886L9.51248 10.8966C9.55602 10.7513 9.68374 10.6475 9.84049 10.6475C12.3398 10.6623 14.6243 10.6771 16.7231 10.6771L25.1238 10.6919Z" fill="url(#paint0_linear_185_701)"/>
</g>
<defs>
<linearGradient id="paint0_linear_185_701" x1="13.8696" y1="5" x2="13.8696" y2="23.7174" gradientUnits="userSpaceOnUse">
<stop stop-color="#80B4F8"/>
<stop offset="1" stop-color="#22B4FF"/>
</linearGradient>
</defs>
</svg>
