<svg width="30" height="30" viewBox="0 0 30 30" fill="none" xmlns="http://www.w3.org/2000/svg">
<g id="other-icon">
<path id="Union" d="M24.2753 20.2207C24.8503 19.9333 25.5689 20.0774 25.8564 20.6523C26.1437 21.2272 26.0004 21.9458 25.4257 22.2334L15.0751 27.9834C14.9314 28.1272 14.6437 28.127 14.4999 28.127C14.3561 28.127 14.0684 28.1271 13.9247 27.9834L3.5751 22.2334C3.00016 21.9459 2.85609 21.2273 3.14346 20.6523C3.43091 20.0774 4.14956 19.9334 4.72452 20.2207L14.4999 25.6836L24.2753 20.2207ZM24.2753 14.4707C24.8503 14.1833 25.5689 14.3274 25.8564 14.9023C26.1437 15.4772 26.0004 16.1958 25.4257 16.4834L15.0751 22.2334C14.9314 22.3772 14.6437 22.377 14.4999 22.377C14.3561 22.377 14.0684 22.3771 13.9247 22.2334L3.5751 16.4834C3.00019 16.1959 2.85615 15.4773 3.14346 14.9023C3.43092 14.3274 4.14955 14.1834 4.72452 14.4707L14.4999 19.9336L24.2753 14.4707ZM13.9247 2.1084C14.356 1.96465 14.7876 1.96465 15.0751 2.1084L25.4257 8.00195C26.144 8.43333 26.1441 9.58334 25.4257 10.0146L15.0751 15.9082C14.6438 16.052 14.2122 16.052 13.9247 15.9082L3.5751 10.0146C2.85634 9.43964 2.85634 8.43321 3.5751 8.00195L13.9247 2.1084Z" fill="url(#paint0_linear_185_721)"/>
</g>
<defs>
<linearGradient id="paint0_linear_185_721" x1="13.5" y1="2" x2="13.5" y2="25.2874" gradientUnits="userSpaceOnUse">
<stop stop-color="#80B4F8"/>
<stop offset="1" stop-color="#22B4FF"/>
</linearGradient>
</defs>
</svg>
