<svg width="30" height="30" viewBox="0 0 30 30" fill="none" xmlns="http://www.w3.org/2000/svg">
<g id="service-icon">
<path id="Vector" d="M23.2846 3H7.53846C5.76923 3 4 4.70213 4 6.40426V26.8298H5.41538L8.42308 23.4255C8.6 23.2553 8.95385 23.2553 9.13077 23.4255L11.7846 26.8298H12.4923L15.1462 23.4255C15.3231 23.2553 15.6769 23.2553 15.8538 23.4255L18.5077 26.8298H19.2154L21.8692 23.5957C22.0462 23.4255 22.4 23.4255 22.5769 23.5957L25.5846 27H27V6.57447C26.4692 4.70213 25.0538 3 23.2846 3ZM18.1538 14.5745L19.0385 17.8085C19.2154 18.3191 18.8615 18.6596 18.5077 18.3191L15.5 16.617H14.9692L11.9615 18.3191C11.6077 18.4894 11.2538 18.1489 11.4308 17.9787L12.8462 14.9149C12.8462 14.7447 12.8462 14.5745 12.6692 14.4043L9.48462 12.1915C9.13077 12.0213 9.30769 11.5106 9.83846 11.5106H13.2C13.3769 11.5106 13.5538 11.3404 13.5538 11.1702L14.9692 8.2766C15.1462 7.93617 15.6769 7.93617 15.8538 8.2766L17.2692 11.1702C17.0923 11.3404 17.2692 11.5106 17.4462 11.5106H21.1615C21.6923 11.5106 21.8692 12.0213 21.5154 12.1915L18.1538 14.5745Z" fill="url(#paint0_linear_185_713)"/>
</g>
<defs>
<linearGradient id="paint0_linear_185_713" x1="14.5" y1="3" x2="14.5" y2="24.3913" gradientUnits="userSpaceOnUse">
<stop stop-color="#80B4F8"/>
<stop offset="1" stop-color="#22B4FF"/>
</linearGradient>
</defs>
</svg>
