<svg width="30" height="30" viewBox="0 0 30 30" fill="none" xmlns="http://www.w3.org/2000/svg">
<g id="social-icon">
<path id="Vector" d="M3.0097 8.59344C2.99984 8.12095 3.08523 7.6513 3.26078 7.21251C3.43632 6.77373 3.69843 6.37478 4.03147 6.03947C4.36451 5.70416 4.76166 5.43934 5.19924 5.26081C5.63683 5.08229 6.10588 4.9937 6.57843 5.00035C7.05099 4.9937 7.52004 5.08229 7.95762 5.26081C8.39521 5.43934 8.79236 5.70416 9.1254 6.03947C9.45844 6.37478 9.72055 6.77373 9.89609 7.21251C10.0716 7.6513 10.157 8.12095 10.1472 8.59344C10.1521 9.06289 10.063 9.52858 9.88529 9.96311C9.70754 10.3976 9.44465 10.7922 9.11212 11.1236C8.77958 11.455 8.38411 11.7165 7.94898 11.8928C7.51386 12.0691 7.04786 12.1565 6.57843 12.15C6.109 12.1565 5.64301 12.0691 5.20789 11.8928C4.77276 11.7165 4.37729 11.455 4.04475 11.1236C3.71222 10.7922 3.44933 10.3976 3.27158 9.96311C3.09382 9.52858 3.00478 9.06289 3.0097 8.59344ZM22.3028 12.15C22.7732 12.1582 23.2406 12.0719 23.6771 11.8964C24.1136 11.7209 24.5106 11.4596 24.8444 11.128C25.1783 10.7965 25.4422 10.4013 25.6207 9.96598C25.7992 9.53064 25.8887 9.06393 25.8837 8.59344C25.8836 7.64701 25.5076 6.73937 24.8383 6.07017C24.1691 5.40097 23.2614 5.02503 22.315 5.02503C21.3685 5.02503 20.4609 5.40097 19.7916 6.07017C19.1224 6.73937 18.7463 7.64701 18.7462 8.59344C18.7397 9.06391 18.8275 9.53092 19.0045 9.96686C19.1816 10.4028 19.4442 10.7988 19.7769 11.1315C20.1096 11.4642 20.5056 11.7269 20.9416 11.9039C21.3775 12.0809 21.8445 12.1687 22.315 12.1622L22.3028 12.15ZM23.8618 13.368H20.695C19.662 13.3806 18.6749 13.7966 17.9444 14.5271C17.2139 15.2576 16.7979 16.2448 16.7853 17.2778V19.5554C16.7778 19.6834 16.7449 19.8085 16.6884 19.9236C16.632 20.0386 16.5531 20.1412 16.4564 20.2253L14.5563 21.4433C14.4941 21.4981 14.4139 21.5284 14.331 21.5284C14.248 21.5284 14.1679 21.4981 14.1057 21.4433L12.3152 20.2253C12.2113 20.1509 12.1308 20.0482 12.0833 19.9295C12.0359 19.8108 12.0233 19.681 12.0472 19.5554V17.2778C12.0346 16.2448 11.6186 15.2576 10.8881 14.5271C10.1576 13.7966 9.17048 13.3806 8.13747 13.368H4.86106C3.83655 13.3932 2.86173 13.8146 2.14164 14.5438C1.42154 15.273 1.0123 16.253 1 17.2778V22.4055C1 22.6721 1.10587 22.9276 1.29431 23.1161C1.48276 23.3045 1.73835 23.4104 2.00485 23.4104C2.27135 23.4104 2.52694 23.3045 2.71538 23.1161C2.90383 22.9276 3.0097 22.6721 3.0097 22.4055V25.5358H10.1472V20.9561L12.169 22.2959L13.6185 23.2947C13.888 23.4594 14.1978 23.5465 14.5137 23.5465C14.8296 23.5465 15.1393 23.4594 15.4089 23.2947L16.8583 22.2959L18.868 20.9561V25.5358H26.0055V22.4055C26.0055 22.6721 26.1114 22.9276 26.2998 23.1161C26.4883 23.3045 26.7439 23.4104 27.0104 23.4104C27.2769 23.4104 27.5325 23.3045 27.7209 23.1161C27.9093 22.9276 28.0152 22.6721 28.0152 22.4055V17.2778C27.9366 16.2292 27.47 15.2476 26.7065 14.5247C25.943 13.8017 24.9375 13.3893 23.8862 13.368H23.8618Z" fill="url(#paint0_linear_185_709)"/>
</g>
<defs>
<linearGradient id="paint0_linear_185_709" x1="13.333" y1="5" x2="13.333" y2="23.3037" gradientUnits="userSpaceOnUse">
<stop stop-color="#80B4F8"/>
<stop offset="1" stop-color="#22B4FF"/>
</linearGradient>
</defs>
</svg>
