<svg width="18" height="18" viewBox="0 0 18 18" fill="none" xmlns="http://www.w3.org/2000/svg">
<circle cx="9" cy="9" r="8.5" stroke="#32333B"/>
<path d="M9.59725 4C10.3295 4 10.913 4.21017 11.3593 4.65522C11.7826 5.07555 12 5.65659 12 6.39835C12 6.95467 11.8513 7.43681 11.5652 7.84478C11.4508 7.99313 11.1419 8.31456 10.6384 8.7967C10.3867 9.03159 10.2151 9.25412 10.1007 9.47665C9.95195 9.74863 9.8833 10.0453 9.8833 10.3791V10.6635H8.96796V10.3791C8.96796 9.97115 9.03661 9.61264 9.17391 9.30357C9.3341 8.93269 9.71167 8.46291 10.3295 7.86951C10.5126 7.6717 10.6499 7.52335 10.7185 7.42445C10.9474 7.11538 11.0618 6.79396 11.0618 6.4478C11.0618 5.9533 10.9245 5.57006 10.6728 5.29808C10.4096 5.00137 10.032 4.86538 9.55149 4.86538C8.97941 4.86538 8.55606 5.06319 8.28146 5.47115C8.02975 5.81731 7.90389 6.28709 7.90389 6.89286H7C7 6.02747 7.21739 5.33517 7.67506 4.81593C8.13272 4.27198 8.77346 4 9.59725 4ZM9.42563 11.5288C9.62014 11.5288 9.79176 11.5907 9.92906 11.739C10.0549 11.875 10.1236 12.0481 10.1236 12.2582C10.1236 12.4808 10.0549 12.6538 9.91762 12.7898C9.78032 12.9258 9.62014 13 9.42563 13C9.23112 13 9.07094 12.9258 8.93364 12.7898C8.79634 12.6415 8.73913 12.4684 8.73913 12.2582C8.73913 12.0481 8.79634 11.875 8.93364 11.739C9.07094 11.5907 9.23112 11.5288 9.42563 11.5288Z" fill="#32333B"/>
</svg>
