<svg width="121" height="130" viewBox="0 0 121 130" fill="none" xmlns="http://www.w3.org/2000/svg">
<g id="unlock-icon">
<path id="Vector" d="M34.1852 37.6444V25.01C34.1852 11.4345 43.745 0 56.472 0H64.8613C77.5724 0 87.1481 11.4486 87.1481 25.01V37.6444H97.7672C103.604 37.6444 108.333 41.8559 108.333 47.0273V103.55C108.333 104.783 108.06 106.004 107.529 107.142C106.998 108.281 106.219 109.315 105.238 110.187C104.257 111.058 103.092 111.749 101.81 112.22C100.528 112.692 99.1545 112.934 97.7672 112.933H23.5661C20.7652 112.932 18.0792 111.943 16.0982 110.184C14.1171 108.425 13.0028 106.039 13 103.55V47.0273C13 41.8465 17.7296 37.6444 23.5661 37.6444H34.1852ZM44.7778 37.6444H76.5556V25.01C76.5556 16.1401 70.9203 9.41111 64.8613 9.41111H56.472C50.3919 9.41111 44.7778 16.1306 44.7778 25.01V37.6444ZM65.963 74.0372C69.1407 72.4138 71.2593 69.3693 71.2593 65.8778C71.2593 60.6452 66.5191 56.4667 60.6667 56.4667C54.7772 56.4667 50.0741 60.6781 50.0741 65.8778C50.0741 69.3834 52.2032 72.4185 55.3704 74.0372V84.6577C55.3669 85.2756 55.5004 85.8881 55.7634 86.4602C56.0263 87.0323 56.4135 87.5527 56.9029 87.9919C57.3922 88.431 57.9741 88.7802 58.6154 89.0195C59.2566 89.2589 59.9447 89.3836 60.6402 89.3867C61.3357 89.3898 62.0251 89.2712 62.669 89.0376C63.3129 88.8039 63.8987 88.4599 64.393 88.0251C64.8873 87.5904 65.2803 87.0734 65.5497 86.5037C65.819 85.9339 65.9595 85.3226 65.963 84.7047V74.0372Z" fill="#22B4FF"/>
</g>
</svg>
