<svg width="25" height="25" viewBox="0 0 25 25" fill="none" xmlns="http://www.w3.org/2000/svg">
<g id="add-icon">
<path id="Vector" d="M13.104 11.4595H20.9987C21.1989 11.4849 21.383 11.5824 21.5164 11.7338C21.6498 11.8852 21.7235 12.0801 21.7235 12.2819C21.7235 12.4837 21.6498 12.6785 21.5164 12.8299C21.383 12.9813 21.1989 13.0789 20.9987 13.1042H13.104V20.999C13.0786 21.1992 12.9811 21.3832 12.8297 21.5167C12.6783 21.6501 12.4834 21.7237 12.2816 21.7237C12.0798 21.7237 11.885 21.6501 11.7336 21.5167C11.5822 21.3832 11.4846 21.1992 11.4593 20.999V13.1042H3.56453C3.4478 13.119 3.32926 13.1088 3.21679 13.0743C3.10432 13.0397 3.0005 12.9816 2.91223 12.9038C2.82396 12.826 2.75325 12.7303 2.70482 12.6231C2.6564 12.5158 2.63135 12.3995 2.63135 12.2819C2.63135 12.1642 2.6564 12.0479 2.70482 11.9407C2.75325 11.8334 2.82396 11.7378 2.91223 11.66C3.0005 11.5822 3.10432 11.5241 3.21679 11.4895C3.32926 11.4549 3.4478 11.4447 3.56453 11.4595H11.4593V3.56477C11.4445 3.44804 11.4547 3.32951 11.4893 3.21704C11.5238 3.10457 11.5819 3.00075 11.6597 2.91247C11.7375 2.8242 11.8332 2.7535 11.9404 2.70507C12.0477 2.65664 12.164 2.63159 12.2816 2.63159C12.3993 2.63159 12.5156 2.65664 12.6228 2.70507C12.7301 2.7535 12.8258 2.8242 12.9035 2.91247C12.9813 3.00075 13.0394 3.10457 13.074 3.21704C13.1086 3.32951 13.1188 3.44804 13.104 3.56477V11.4595Z" fill="white"/>
</g>
</svg>
