<svg width="1452" height="644" viewBox="0 0 1452 644" fill="none" xmlns="http://www.w3.org/2000/svg">
<rect width="1452" height="644" fill="white"/>
<path d="M705.362 310.676L708.218 311.05C708.014 311.594 707.776 312.104 707.538 312.58H716.276V314.756C715.426 316.422 714.1 317.884 712.332 319.176C714.44 320.128 716.82 320.876 719.506 321.488L717.84 323.902C714.678 323.052 711.958 322.032 709.646 320.808C707.062 322.1 703.9 323.154 700.16 324.004L698.766 321.42C702.03 320.876 704.818 320.162 707.062 319.21C705.974 318.462 705.022 317.68 704.206 316.864C703.288 317.68 702.234 318.462 701.078 319.21L699.31 316.864C702.302 315.164 704.308 313.09 705.362 310.676ZM709.714 317.884C711.108 317 712.23 316.014 713.046 314.926H706.008C705.94 314.994 705.872 315.028 705.872 315.096C706.96 316.116 708.252 317.068 709.714 317.884ZM703.118 327.03C707.606 327.846 711.89 328.968 716.038 330.464L714.984 333.048C710.768 331.518 706.416 330.328 701.894 329.444L703.118 327.03ZM706.586 322.44C709.306 323.256 711.822 324.208 714.066 325.33L712.57 327.642C710.156 326.316 707.674 325.296 705.124 324.548L706.586 322.44ZM723.212 307.378V337.502H720.05V336.312H697.95V337.502H694.788V307.378H723.212ZM697.95 333.456H720.05V310.234H697.95V333.456ZM736.914 317.85V319.652C736.914 320.808 736.846 321.862 736.778 322.882H752.452V337.57H749.222V325.976H736.404C735.554 330.94 733.752 334.782 730.964 337.502L728.482 335.326C731.882 332.062 733.616 326.826 733.684 319.652V307.106H736.914V314.756H746.128V306.12H749.29V314.756H756.464V317.85H736.914Z" fill="#32333B"/>
</svg>
