<svg width="208" height="33" viewBox="0 0 208 33" fill="none" xmlns="http://www.w3.org/2000/svg">
<g id="logo">
<g id="Group">
<path id="Vector" d="M61.2721 23.9491L66.0075 24.9023C65.6007 26.2683 65.0792 28.047 64.4325 30.2385C64.0257 31.4276 63.7441 32.3317 63.5772 32.9803C62.7636 32.7052 61.5537 32.3416 59.937 31.8895C59.3737 31.7028 58.967 31.5652 58.7271 31.4768C59.7805 29.0101 60.6254 26.5042 61.2721 23.9491ZM85.3037 23.2612H61.6267V9.43418H70.2422V0.137577H75.2175V2.19148H87.5984V7.39011H75.2175V9.44401H85.2933V23.271L85.3037 23.2612ZM80.2033 18.0625V14.5051H66.7272V18.0625H80.2033ZM71.4626 24.4994C71.619 25.4133 71.8694 26.6909 72.1927 28.332C72.4326 29.8848 72.6412 31.1132 72.7977 32.0271L67.8224 32.4398C67.6555 31.1623 67.3739 29.2951 66.9671 26.8285C66.8836 26.003 66.8002 25.374 66.7272 24.9121L71.4626 24.4994ZM78.5031 24.2242C79.1498 26.5042 79.7547 28.8332 80.3284 31.2016L75.4678 32.1647C74.9046 29.5211 74.3309 27.1036 73.7677 24.9121L78.5031 24.2242ZM85.5436 23.5363C85.6271 23.8115 85.7835 24.2242 86.0339 24.7647C87.0873 27.5066 87.8592 29.5605 88.339 30.9264L83.4784 32.5676C82.9882 30.6513 82.1016 28.0471 80.8082 24.7647L85.5436 23.5363Z" fill="#22B4FF"/>
<path id="Vector_2" d="M120.977 24.0867H116.846C116.367 26.2781 115.918 27.8702 115.511 28.8824C114.458 31.349 113.039 32.5774 111.266 32.5774C109.159 32.6659 107.459 31.3883 106.166 28.7448C105.926 28.1945 105.675 27.6048 105.436 26.9661C104.226 27.9684 102.891 28.8332 101.43 29.5703C101.19 29.2067 100.867 28.6072 100.46 27.7915C99.897 26.6024 99.4068 25.6492 99 24.9122C99.3233 24.7353 99.8031 24.411 100.46 23.9589C102.16 22.9565 103.329 22.1802 103.986 21.6298C103.662 19.4384 103.422 16.7457 103.256 13.5518L99.7301 13.9646L99.2399 9.0411L103.005 8.62835C102.922 5.70965 102.807 2.83026 102.64 0H107.376C107.376 1.55271 107.459 4.1078 107.615 7.66528C107.449 5.02174 107.449 5.15932 107.615 8.07802L115.021 7.25253L115.501 12.0482L107.73 13.0113C107.887 14.9276 108.012 16.5688 108.095 17.9348C109.305 16.5688 110.526 14.9669 111.735 13.1391L115.616 15.8809C113.509 18.9863 111.37 21.5807 109.18 23.6837C109.42 24.5092 109.702 25.2365 110.025 25.8752C110.348 26.6024 110.672 26.9661 110.995 26.9661C111.402 26.9661 111.725 26.514 111.965 25.6001C112.288 24.3225 112.57 22.9565 112.81 21.4923C113.863 22.0426 115.115 22.6814 116.575 23.4086V4.23556H120.946V24.0867H120.977ZM110.421 0.5405C112.361 1.90649 113.822 2.95801 114.792 3.68523L111.882 7.38029C111.558 7.10512 111.11 6.69238 110.546 6.15188C109.493 5.23794 108.606 4.42228 107.876 3.68523L110.421 0.5405ZM122.927 0.265336H127.663V27.369C127.83 30.6513 126.328 32.2531 123.167 32.1647C122.521 32.2531 121.665 32.3023 120.622 32.3023C119.652 32.3907 118.839 32.4398 118.192 32.4398C117.952 30.7004 117.587 28.9217 117.097 27.1036C118.63 27.1921 119.923 27.2412 120.977 27.2412C122.354 27.3297 123 26.74 122.917 25.4625V0.265336H122.927Z" fill="#22B4FF"/>
<path id="Vector_3" d="M164.575 32.715H159.714V25.6001L150.243 26.5631L149.878 22.4553L149.148 23.5462C148.908 23.3594 148.543 22.9958 148.053 22.4553C147.563 22.0033 147.198 21.6298 146.958 21.3645V32.5873H142.348V22.3177C141.461 24.3225 140.522 26.1504 139.552 27.7915C139.385 27.3395 139.146 26.3371 138.822 24.7844C138.582 23.4184 138.374 22.416 138.217 21.7772C139.677 19.6742 140.846 17.2567 141.743 14.5247H138.468V9.46366H142.348V6.45652C142.024 6.54496 141.503 6.5941 140.773 6.5941C140.043 6.68254 139.521 6.73168 139.198 6.73168C139.114 5.64085 138.958 4.17659 138.707 2.34871C138.707 2.53543 138.666 2.34871 138.582 1.79839C143.923 1.43478 147.73 1.11048 149.993 0.835313L150.838 5.63103C149.628 5.71947 148.324 5.85705 146.958 6.04377V9.46366H150.358V14.5247H146.958V18.0822L148.053 16.5786C148.46 16.8538 149.107 17.355 149.993 18.0822C150.88 18.8094 151.526 19.3597 151.933 19.7233L150.723 21.3645L159.704 20.4014V7.80285L156.908 11.2227C156.825 11.1343 156.71 10.9967 156.543 10.81C155.083 9.44401 153.341 7.84216 151.328 6.01429L154.238 2.45681C154.885 3.00714 155.73 3.73436 156.783 4.6483C157.993 5.73913 158.963 6.61375 159.693 7.25253V0.265331H164.554V19.9789L167.589 19.5661L167.829 24.7647L164.554 25.1775V32.7052L164.575 32.715ZM153.164 11.2227C153.654 11.5864 154.332 12.1367 155.229 12.8639C156.689 14.053 157.899 15.0554 158.869 15.8711L155.834 19.7037C154.134 18.0625 152.309 16.4214 150.369 14.7802L153.164 11.2227Z" fill="#22B4FF"/>
<path id="Vector_4" d="M185.822 0.137577V5.47379H188.002V10.3973H185.822V14.7802C186.625 14.6918 187.438 14.5051 188.252 14.2299V19.5661C188.012 19.5661 187.605 19.6546 187.042 19.8413C186.562 19.9297 186.155 20.028 185.832 20.1164V28.1945C185.915 30.9363 184.82 32.3416 182.557 32.4398C181.503 32.6266 180.366 32.715 179.157 32.715C178.917 30.9756 178.625 29.3344 178.301 27.7915H180.241C180.971 27.7915 181.295 27.2903 181.211 26.288V21.2269C180.325 21.4136 179.386 21.6397 178.416 21.9148L178.051 16.0283C178.458 15.9398 178.979 15.8416 179.626 15.7531C180.356 15.5664 180.878 15.478 181.201 15.478V10.4169H178.406V5.49344H181.201V0.137577H185.811H185.822ZM206.213 12.461V17.522C205.003 20.5292 203.418 23.0941 201.478 25.1873C203.261 26.2781 205.358 27.1528 207.788 27.7915C206.974 29.1575 206.213 30.7594 205.483 32.5873C202.646 31.4964 199.976 30.2091 197.472 28.7546C195.125 30.2091 192.257 31.6242 188.857 33C188.043 31.2606 187.198 29.7177 186.312 28.3419C189.222 27.4279 191.61 26.3764 193.477 25.1971C191.944 23.4675 190.484 21.3645 189.107 18.8979L191.777 17.2567H188.867V12.461H195.063V9.45384H188.752V4.53037H195.063V0.137577H199.923V4.52054H207.089V9.44401H199.923V12.4512H206.234L206.213 12.461ZM193.467 17.2567C194.677 19.173 196.012 20.8633 197.472 22.3177C199.006 20.765 200.268 19.0747 201.238 17.2567H193.467Z" fill="#22B4FF"/>
</g>
<path id="Vector_5" d="M15 33C6.72827 33 0 26.2668 0 17.9968C0 9.72685 6.72827 3 15 3C23.2717 3 30 9.72685 30 17.9968C30 26.2668 23.2717 32.9937 15 32.9937V33ZM15 8.35377C9.67661 8.35377 5.34859 12.6809 5.34859 18.0031C5.34859 23.3254 9.67661 27.6525 15 27.6525C20.3234 27.6525 24.6514 23.3254 24.6514 18.0031C24.6514 12.6809 20.3234 8.35377 15 8.35377Z" fill="#22B4FF"/>
<path id="Vector_6" d="M45 3H39V33H45V3Z" fill="#22B4FF"/>
</g>
</svg>
