<svg width="214" height="37" viewBox="0 0 214 37" fill="none" xmlns="http://www.w3.org/2000/svg">
<g id="logo">
<g id="Group">
<path id="Vector" d="M67.2721 26.4189L72.0075 27.4306C71.6007 28.8804 71.0792 30.7683 70.4325 33.0943C70.0257 34.3564 69.7441 35.316 69.5772 36.0044C68.7636 35.7124 67.5537 35.3264 65.937 34.8466C65.3737 34.6485 64.967 34.5024 64.7271 34.4086C65.7805 31.7905 66.6254 29.1308 67.2721 26.4189ZM91.3037 25.6887H67.6267V11.0132H76.2422V1.146H81.2175V3.32595H93.5984V8.84364H81.2175V11.0236H91.2933V25.6992L91.3037 25.6887ZM86.2033 20.1711V16.3953H72.7272V20.1711H86.2033ZM77.4626 27.003C77.619 27.973 77.8694 29.329 78.1927 31.0708C78.4326 32.7188 78.6412 34.0226 78.7977 34.9927L73.8224 35.4307C73.6555 34.0748 73.3739 32.093 72.9671 29.475C72.8836 28.5988 72.8002 27.9313 72.7272 27.4411L77.4626 27.003ZM84.5031 26.7109C85.1498 29.1308 85.7547 31.6028 86.3284 34.1165L81.4678 35.1387C80.9046 32.3329 80.3309 29.767 79.7677 27.4411L84.5031 26.7109ZM91.5436 25.9808C91.6271 26.2728 91.7835 26.7109 92.0339 27.2846C93.0873 30.1947 93.8592 32.3746 94.339 33.8245L89.4784 35.5663C88.9882 33.5324 88.1016 30.7684 86.8082 27.2846L91.5436 25.9808Z" fill="white"/>
<path id="Vector_2" d="M126.266 26.5649H122.136C121.656 28.8909 121.208 30.5806 120.801 31.655C119.747 34.273 118.329 35.5768 116.556 35.5768C114.449 35.6707 112.749 34.3147 111.455 31.5089C111.215 30.9248 110.965 30.299 110.725 29.621C109.515 30.6849 108.18 31.6028 106.72 32.3851C106.48 31.9992 106.157 31.3629 105.75 30.4972C105.187 29.2351 104.696 28.2234 104.29 27.4411C104.613 27.2533 105.093 26.9091 105.75 26.4293C107.45 25.3654 108.618 24.5414 109.275 23.9573C108.952 21.6313 108.712 18.7734 108.545 15.3835L105.02 15.8216L104.529 10.596L108.295 10.1579C108.211 7.06007 108.097 4.00396 107.93 1H112.665C112.665 2.648 112.749 5.35991 112.905 9.13572C112.738 6.32994 112.738 6.47596 112.905 9.57379L120.311 8.69764L120.79 13.7877L113.02 14.8099C113.176 16.8438 113.301 18.5857 113.385 20.0355C114.595 18.5857 115.815 16.8855 117.025 14.9455L120.905 17.8555C118.798 21.1515 116.66 23.9052 114.47 26.1373C114.71 27.0134 114.991 27.7853 115.314 28.4633C115.638 29.2351 115.961 29.621 116.285 29.621C116.691 29.621 117.015 29.1412 117.255 28.1712C117.578 26.8153 117.859 25.3654 118.099 23.8113C119.153 24.3954 120.405 25.0734 121.865 25.8452V5.4955H126.235V26.5649H126.266ZM115.711 1.57367C117.651 3.0235 119.111 4.13955 120.081 4.9114L117.171 8.83324C116.848 8.54118 116.399 8.10311 115.836 7.52943C114.783 6.55941 113.896 5.69368 113.166 4.9114L115.711 1.57367ZM128.217 1.28162H132.952V30.0487C133.119 33.5324 131.617 35.2326 128.457 35.1387C127.81 35.2326 126.955 35.2847 125.912 35.2847C124.942 35.3786 124.128 35.4308 123.481 35.4308C123.242 33.5846 122.877 31.6967 122.386 29.7671C123.92 29.8609 125.213 29.9131 126.266 29.9131C127.643 30.007 128.29 29.3811 128.206 28.0252V1.28162H128.217Z" fill="white"/>
<path id="Vector_3" d="M170.575 35.7229H165.714V28.1713L156.244 29.1935L155.878 24.8336L155.148 25.9914C154.908 25.7932 154.543 25.4073 154.053 24.8336C153.563 24.3538 153.198 23.9574 152.958 23.6758V35.5873H148.348V24.6876C147.461 26.8154 146.522 28.7554 145.552 30.4973C145.385 30.0175 145.146 28.9536 144.822 27.3056C144.582 25.8558 144.374 24.7919 144.217 24.1139C145.678 21.8818 146.846 19.3159 147.743 16.4163H144.468V11.0446H148.348V7.85289C148.024 7.94677 147.503 7.99892 146.773 7.99892C146.043 8.09279 145.521 8.14495 145.198 8.14495C145.114 6.98717 144.958 5.43304 144.708 3.49298C144.708 3.69116 144.666 3.49298 144.582 2.90888C149.923 2.52296 153.73 2.17875 155.993 1.8867L156.838 6.97674C155.628 7.07061 154.324 7.21664 152.958 7.41482V11.0446H156.358V16.4163H152.958V20.1921L154.053 18.5962C154.46 18.8883 155.107 19.4202 155.993 20.1921C156.88 20.9639 157.526 21.548 157.933 21.9339L156.723 23.6758L165.704 22.6536V9.28186L162.909 12.9116C162.825 12.8178 162.71 12.6717 162.544 12.4736C161.083 11.0237 159.341 9.32358 157.328 7.38353L160.238 3.60772C160.885 4.19182 161.73 4.96367 162.783 5.9337C163.993 7.09147 164.963 8.01978 165.693 8.69776V1.28174H170.554V22.2051L173.589 21.7671L173.829 27.2847L170.554 27.7228V35.7125L170.575 35.7229ZM159.164 12.9116C159.654 13.2976 160.332 13.8817 161.229 14.6535C162.69 15.9156 163.899 16.9795 164.869 17.8452L161.834 21.9131C160.134 20.1712 158.309 18.4293 156.369 16.6874L159.164 12.9116Z" fill="white"/>
<path id="Vector_4" d="M191.821 1.146V6.80971H194.001V12.0353H191.821V16.6873C192.625 16.5934 193.438 16.3953 194.252 16.1032V21.7669C194.012 21.7669 193.605 21.8608 193.042 22.059C192.562 22.1528 192.155 22.2571 191.832 22.351V30.9248C191.915 33.8349 190.82 35.3264 188.557 35.4307C187.503 35.6289 186.366 35.7228 185.156 35.7228C184.917 33.8766 184.624 32.1347 184.301 30.4972H186.241C186.971 30.4972 187.295 29.9652 187.211 28.9013V23.5297C186.325 23.7278 185.386 23.9677 184.416 24.2598L184.051 18.012C184.458 17.9181 184.979 17.8138 185.626 17.7199C186.356 17.5217 186.877 17.4279 187.201 17.4279V12.0562H184.405V6.83057H187.201V1.146H191.811H191.821ZM212.213 14.2257V19.5974C211.003 22.7891 209.418 25.5114 207.477 27.7331C209.261 28.8909 211.358 29.8192 213.788 30.4972C212.974 31.947 212.213 33.6471 211.483 35.5872C208.646 34.4294 205.975 33.063 203.472 31.5193C201.125 33.063 198.257 34.565 194.857 36.0253C194.043 34.1791 193.198 32.5415 192.312 31.0813C195.222 30.1112 197.61 28.9952 199.477 27.7435C197.944 25.9078 196.484 23.6757 195.107 21.0576L197.777 19.3158H194.867V14.2257H201.063V11.034H194.752V5.80839H201.063V1.146H205.923V5.79796H213.089V11.0236H205.923V14.2153H212.234L212.213 14.2257ZM199.467 19.3158C200.677 21.3497 202.012 23.1437 203.472 24.6874C205.005 23.0394 206.268 21.2454 207.238 19.3158H199.467Z" fill="white"/>
</g>
<g id="Group_2">
<path id="Vector_5" d="M17.8726 35.7526C8.01676 35.7526 0 27.7284 0 17.8726C0 8.01676 8.01676 0 17.8726 0C27.7284 0 35.7451 8.01676 35.7451 17.8726C35.7451 27.7284 27.7284 35.7451 17.8726 35.7451V35.7526ZM17.8726 6.38038C11.5297 6.38038 6.37287 11.5372 6.37287 17.8801C6.37287 24.2229 11.5297 29.3798 17.8726 29.3798C24.2154 29.3798 29.3723 24.2229 29.3723 17.8801C29.3723 11.5372 24.2154 6.38038 17.8726 6.38038Z" fill="white"/>
<path id="Vector_6" d="M51.1182 2.21436H44.7378V34.0037H51.1182V2.21436Z" fill="white"/>
</g>
</g>
</svg>
