<svg width="98" height="98" viewBox="0 0 98 98" fill="none" xmlns="http://www.w3.org/2000/svg">
<g id="PDF-icon">
<g id="Group 2145">
<path id="Vector" d="M79.7143 81.4762C79.7143 81.9702 79.617 82.4594 79.428 82.9158C79.2389 83.3722 78.9618 83.7869 78.6125 84.1362C78.2632 84.4856 77.8485 84.7627 77.3921 84.9517C76.9356 85.1408 76.4465 85.2381 75.9524 85.2381H23.2858C22.7918 85.2381 22.3026 85.1408 21.8462 84.9517C21.3898 84.7627 20.9751 84.4856 20.6258 84.1362C20.2764 83.7869 19.9993 83.3722 19.8103 82.9158C19.6212 82.4594 19.5239 81.9702 19.5239 81.4762V13.762C19.5239 13.2679 19.6212 12.7788 19.8103 12.3223C19.9993 11.8659 20.2764 11.4512 20.6258 11.1019C20.9751 10.7526 21.3898 10.4755 21.8462 10.2864C22.3026 10.0974 22.7918 10.0001 23.2858 10.0001H55.6006C56.0956 9.9972 56.5864 10.0921 57.0448 10.2793C57.5031 10.4665 57.92 10.7424 58.2715 11.091L78.6234 31.4429C78.9721 31.7944 79.2479 32.2113 79.4351 32.6696C79.6223 33.128 79.7172 33.6188 79.7143 34.1138V81.4762Z" fill="#EBECF0"/>
<path id="Vector_2" d="M79.7143 81.4762V85.2381C79.7143 85.7321 79.617 86.2213 79.428 86.6777C79.2389 87.1341 78.9618 87.5488 78.6125 87.8982C78.2632 88.2475 77.8485 88.5246 77.3921 88.7136C76.9356 88.9027 76.4465 89 75.9524 89H23.2858C22.2881 89 21.3313 88.6037 20.6258 87.8982C19.9203 87.1927 19.5239 86.2358 19.5239 85.2381V81.4762C19.5239 81.9702 19.6212 82.4594 19.8103 82.9158C19.9993 83.3722 20.2764 83.7869 20.6258 84.1363C20.9751 84.4856 21.3898 84.7627 21.8462 84.9517C22.3026 85.1408 22.7918 85.2381 23.2858 85.2381H75.9524C76.4465 85.2381 76.9356 85.1408 77.3921 84.9517C77.8485 84.7627 78.2632 84.4856 78.6125 84.1363C78.9618 83.7869 79.2389 83.3722 79.428 82.9158C79.617 82.4594 79.7143 81.9702 79.7143 81.4762Z" fill="#C1C7D0"/>
<path id="Vector_3" d="M12 51.381H87.238V70.1905C87.238 70.6845 87.1407 71.1737 86.9517 71.6301C86.7626 72.0865 86.4855 72.5012 86.1362 72.8506C85.7869 73.1999 85.3722 73.477 84.9157 73.666C84.4593 73.8551 83.9701 73.9524 83.4761 73.9524H15.7619C15.2679 73.9524 14.7787 73.8551 14.3223 73.666C13.8659 73.477 13.4512 73.1999 13.1018 72.8506C12.7525 72.5012 12.4754 72.0865 12.2864 71.6301C12.0973 71.1737 12 70.6845 12 70.1905V51.381Z" fill="#FF5630"/>
<path id="Vector_4" d="M19.5238 51.381V43.8572L12 51.381H19.5238ZM79.7142 51.381L79.7895 43.8572L87.2756 51.381H79.7142Z" fill="#DE350B"/>
<path id="Vector_5" d="M30.8096 55.1429H37.3553C37.9478 55.1152 38.5399 55.2075 39.0958 55.4144C39.6518 55.6212 40.1602 55.9384 40.5905 56.3467C41.0034 56.7598 41.3268 57.2537 41.5404 57.7974C41.754 58.341 41.8532 58.9229 41.8319 59.5067C41.851 60.0902 41.7507 60.6714 41.5372 61.2148C41.3238 61.7581 41.0016 62.2522 40.5905 62.6667C40.1449 63.0886 39.6186 63.4161 39.0433 63.6294C38.4679 63.8427 37.8554 63.9375 37.2424 63.9081H33.4805V69.8143H30.8096V55.1429ZM33.33 61.4629H36.7158C37.4156 61.5179 38.1146 61.3464 38.7096 60.9738C38.9232 60.7815 39.0889 60.5418 39.1934 60.274C39.2979 60.0062 39.3384 59.7177 39.3115 59.4314C39.3115 58.1524 38.4713 57.5129 36.791 57.5129H33.33V61.4629ZM43.6753 55.3686H49.6191C50.4704 55.3327 51.3188 55.49 52.1006 55.8288C52.8825 56.1676 53.5774 56.679 54.1334 57.3248C55.3232 58.814 55.9255 60.6879 55.8262 62.5914C55.9091 64.5157 55.339 66.4115 54.2086 67.971C53.6778 68.682 52.9837 69.2548 52.1849 69.6411C51.3861 70.0274 50.506 70.2159 49.6191 70.1905H43.6753V55.3686ZM46.1957 67.6324H49.6191C50.1546 67.6517 50.6869 67.5422 51.1713 67.3131C51.6558 67.084 52.0781 66.7419 52.4029 66.3157C53.1275 65.2428 53.4718 63.9581 53.381 62.6667C53.5063 61.3257 53.1311 59.9857 52.3276 58.9048C51.9668 58.4938 51.5207 58.1665 51.0204 57.9456C50.5202 57.7247 49.9778 57.6156 49.431 57.6257H46.1957V67.6324ZM68.4286 57.7386H60.6414V61.2372H68.4286V63.6448H60.6414V69.9648H58.121V55.2933H68.4286V57.7386Z" fill="white"/>
<path id="Vector_6" d="M79.7144 34.1138V34.6405H59.3625C58.3648 34.6405 57.4079 34.2442 56.7024 33.5387C55.9969 32.8332 55.6006 31.8763 55.6006 30.8786V10.0001C56.0957 9.9972 56.5865 10.0921 57.0448 10.2793C57.5031 10.4665 57.92 10.7424 58.2715 11.091L78.661 31.4429C79.3515 32.1589 79.7302 33.1193 79.7144 34.1138Z" fill="#C1C7D0"/>
</g>
</g>
</svg>
